<?xml version="1.0" encoding="UTF-8"?>
<svg version="1.1" xmlns="http://www.w3.org/2000/svg" width="288" height="288">
<path d="M0 0 C95.04 0 190.08 0 288 0 C288 95.04 288 190.08 288 288 C192.96 288 97.92 288 0 288 C0 192.96 0 97.92 0 0 Z " fill="#FDFDFD" transform="translate(0,0)"/>
<path d="M0 0 C17.07088132 1.42596336 34.05869275 3.36969151 51.0625 5.4375 C67.51406804 7.43464733 83.96396807 9.36117299 100.45362854 11.01573181 C107.64740435 11.73957046 114.80202289 12.58333697 121.9609375 13.59765625 C125.9074028 14.12013173 129.85878879 14.45921311 133.828125 14.75390625 C136 15 136 15 139 16 C139 18.31 139 20.62 139 23 C134.05 23.33 129.1 23.66 124 24 C124 53.04 124 82.08 124 112 C122.02 112 120.04 112 118 112 C118 88.24 118 64.48 118 40 C93.93327359 37.31290947 93.93327359 37.31290947 69.859375 34.69140625 C67.80615163 34.47030286 65.75292897 34.24919285 63.69970703 34.02807617 C60.68844781 33.70389266 57.6771114 33.38054709 54.66546631 33.05996704 C51.83142972 32.75827774 48.99772897 32.45358096 46.1640625 32.1484375 C45.34427917 32.06207535 44.52449585 31.9757132 43.67987061 31.88673401 C36.41566069 31.09997334 29.24875806 30.03553687 22 29 C22 56.39 22 83.78 22 112 C19.36 112 16.72 112 14 112 C14 78.34 14 44.68 14 10 C9.545 9.01 9.545 9.01 5 8 C3.31503622 7.38103371 1.63596029 6.73882078 0 6 C0 4.02 0 2.04 0 0 Z " fill="#96AC5B" transform="translate(68,68)"/>
<path d="M0 0 C95.04 0 190.08 0 288 0 C288 4.62 288 9.24 288 14 C192.96 14 97.92 14 0 14 C0 9.38 0 4.76 0 0 Z " fill="#FDFDFD" transform="translate(0,274)"/>
<path d="M0 0 C95.04 0 190.08 0 288 0 C288 3.96 288 7.92 288 12 C192.96 12 97.92 12 0 12 C0 8.04 0 4.08 0 0 Z " fill="#F9FAFA" transform="translate(0,0)"/>
<path d="M0 0 C4.55599294 3.22464017 8.65436227 7.0087668 11.80859375 11.64453125 C11.80859375 12.30453125 11.80859375 12.96453125 11.80859375 13.64453125 C12.46859375 13.97453125 13.12859375 14.30453125 13.80859375 14.64453125 C11.00376789 22.91138642 4.16827117 29.38420591 -3.26953125 33.70703125 C-10.6401128 37.30243689 -17.89460664 37.89923414 -25.9453125 35.9921875 C-36.07425922 32.29884699 -42.85453581 25.87417778 -48.19140625 16.64453125 C-45.25783998 18.02580685 -42.70472012 19.64058447 -40.06640625 21.51953125 C-32.27771979 26.72901334 -25.59240782 29.25104748 -16.19140625 28.64453125 C-17.40828125 28.43828125 -18.62515625 28.23203125 -19.87890625 28.01953125 C-24.72338141 26.83418095 -26.40935084 24.6911573 -29.19140625 20.64453125 C-30.75568863 17.51596649 -30.47147711 15.11740994 -30.19140625 11.64453125 C-29.07307243 8.84625493 -27.70572628 6.2472688 -26.19140625 3.64453125 C-33.83458231 6.11475925 -40.45878216 9.26321405 -47.19140625 13.64453125 C-42.80630131 4.1328785 -35.51832552 -0.46709256 -26.31640625 -4.66796875 C-16.58620427 -6.80861319 -8.42563412 -5.21157761 0 0 Z " fill="#F8FAFA" transform="translate(155.19140625,127.35546875)"/>
<path d="M0 0 C95.04 0 190.08 0 288 0 C288 1.65 288 3.3 288 5 C192.96 5 97.92 5 0 5 C0 3.35 0 1.7 0 0 Z " fill="#103972" transform="translate(0,269)"/>
<path d="M0 0 C95.04 0 190.08 0 288 0 C288 1.65 288 3.3 288 5 C192.96 5 97.92 5 0 5 C0 3.35 0 1.7 0 0 Z " fill="#103671" transform="translate(0,12)"/>
<path d="M0 0 C3.48296209 2.40253303 5.57451897 5.09687943 6.50390625 9.25390625 C6.78246842 14.5645593 5.57277875 17.93100198 2 22 C-0.96610357 24.33050995 -4.23929081 24.47717205 -7.96875 24.38671875 C-12.27457989 23.56695498 -14.84034656 20.5813456 -17.375 17.125 C-18.75017467 12.44940611 -18.55896687 9.07652879 -16.3125 4.75 C-11.56221338 -0.89898949 -7.05522305 -2.40125135 0 0 Z " fill="#90A94E" transform="translate(143,131)"/>
<path d="M0 0 C2.93356627 1.3812756 5.48668613 2.99605322 8.125 4.875 C17.53031371 11.11462275 25.648614 13.22071446 37 12 C45.58957035 10.23401777 52.16328859 6.38466651 59 1 C59 5.56295357 56.28513728 7.52038155 53.29296875 10.77734375 C47.24288309 16.64190719 40.31152882 20.27147955 31.8125 20.375 C21.46161859 20.17661783 13.36748791 16.24118811 6 9 C3.77459422 6.11844365 1.8217387 3.15053634 0 0 Z " fill="#2180BF" transform="translate(107,144)"/>
<path d="M0 0 C4.65476686 3.29455036 8.30766684 7.16228392 11.80859375 11.64453125 C11.47859375 12.30453125 11.14859375 12.96453125 10.80859375 13.64453125 C10.20273438 13.185625 9.596875 12.72671875 8.97265625 12.25390625 C-1.79850824 4.36609964 -10.62533723 1.04607025 -24.19140625 2.64453125 C-32.59179994 4.8477595 -39.96946518 8.90054739 -47.19140625 13.64453125 C-42.80630131 4.1328785 -35.51832552 -0.46709256 -26.31640625 -4.66796875 C-16.58620427 -6.80861319 -8.42563412 -5.21157761 0 0 Z " fill="#2086BF" transform="translate(155.19140625,127.35546875)"/>
<path d="M0 0 C8.08377812 0.40629041 16.04742503 1.22256109 24.0625 2.3125 C38.15340141 4.18817001 52.27236179 5.81849324 66.39300537 7.45092773 C69.86045031 7.85215222 73.32767492 8.25527199 76.79492188 8.65820312 C83.52974085 9.44059277 90.2647898 10.22098552 97 11 C97 11.99 97 12.98 97 14 C88.96047974 14.31322806 81.08079615 13.14059531 73.125 12.125 C70.31534348 11.77151448 67.50536636 11.420624 64.6953125 11.0703125 C63.63021957 10.93715134 63.63021957 10.93715134 62.54360962 10.80130005 C54.37139505 9.78616594 46.18676371 8.88879503 38 8 C37.20027771 7.91296814 36.40055542 7.82593628 35.57659912 7.73626709 C29.84308261 7.11259253 24.10910123 6.49327184 18.375 5.875 C16.67447641 5.69143182 14.97395556 5.50783817 13.2734375 5.32421875 C9.1823231 4.88252069 5.09117236 4.44116079 1 4 C0.67 2.68 0.34 1.36 0 0 Z " fill="#F7F8F2" transform="translate(89,90)"/>
<path d="M0 0 C7.75341832 0.48941843 15.38384166 1.29052043 23.06542969 2.4453125 C26.96842242 2.99554826 30.87452272 3.45108377 34.79296875 3.87109375 C47.07914964 5.213044 59.35112027 6.67564127 71.625 8.125 C73.99999355 8.40500265 76.37499351 8.68495093 78.75 8.96484375 C84.50007391 9.64260366 90.25006891 10.32102958 96 11 C96 11.99 96 12.98 96 14 C88.81724726 14.22970673 81.92463331 13.32563395 74.8125 12.375 C63.95675824 10.95634147 53.09094328 9.65270014 42.2109375 8.43359375 C40.41933449 8.23277191 40.41933449 8.23277191 38.59153748 8.02789307 C33.74623648 7.48611491 28.90074031 6.94623436 24.05459595 6.41204834 C20.62334419 6.03379734 17.1925197 5.65184593 13.76171875 5.26953125 C12.71934052 5.156129 11.67696228 5.04272675 10.60299683 4.92588806 C9.64434723 4.81861893 8.68569763 4.71134979 7.69799805 4.60083008 C6.85963913 4.50852615 6.02128021 4.41622223 5.15751648 4.32112122 C3 4 3 4 0 3 C0 2.01 0 1.02 0 0 Z " fill="#F6F7F1" transform="translate(90,82)"/>
<path d="M0 0 C9 0 9 0 11.5625 1.5 C12.036875 1.995 12.51125 2.49 13 3 C12.814375 4.010625 12.62875 5.02125 12.4375 6.0625 C12.00231753 9.97914227 12.29146979 13.14244663 13 17 C11.5625 18.5 11.5625 18.5 9 20 C6.03 20 3.06 20 0 20 C0 13.4 0 6.8 0 0 Z " fill="#123674" transform="translate(56,187)"/>
<path d="M0 0 C2.9375 0.875 2.9375 0.875 4.9375 3.875 C5.70518116 8.5614257 5.34635085 12.07190011 3.1875 16.3125 C-0.22468474 20.19859928 -1.7733264 20.72944814 -6.9375 21.3125 C-11.69737286 21.23227742 -13.7807583 19.1567417 -17.0625 15.875 C-15.8125 14.3125 -15.8125 14.3125 -14.0625 12.875 C-11.92504078 13.12646579 -10.60324221 13.33425779 -9.0625 14.875 C-6.19985383 15.17633118 -4.6577271 15.32142032 -2.3125 13.5625 C-0.85946921 11.78353321 -0.85946921 11.78353321 -0.0625 8.875 C-1.7125 8.545 -3.3625 8.215 -5.0625 7.875 C-5.75 5.5625 -5.75 5.5625 -6.0625 2.875 C-4.36879378 -0.11389334 -3.43524812 -0.14021421 0 0 Z " fill="#94AC50" transform="translate(144.0625,134.125)"/>
<path d="M0 0 C12.54 1.32 25.08 2.64 38 4 C38 4.33 38 4.66 38 5 C25.6060531 8.63270857 13.6170017 5.80242881 1 4 C1 31.39 1 58.78 1 87 C0.67 87 0.34 87 0 87 C0 58.29 0 29.58 0 0 Z " fill="#AEBD84" transform="translate(89,93)"/>
<path d="M0 0 C3.69230769 0.69230769 3.69230769 0.69230769 5 2 C5.07258946 4.18639453 5.08373783 6.37500389 5.0625 8.5625 C5.05347656 9.76003906 5.04445312 10.95757812 5.03515625 12.19140625 C5.02355469 13.11824219 5.01195312 14.04507813 5 15 C3.68 15 2.36 15 1 15 C1 11.37 1 7.74 1 4 C0.01 4 -0.98 4 -2 4 C-2 7.63 -2 11.26 -2 15 C-3.32 15 -4.64 15 -6 15 C-6 11.37 -6 7.74 -6 4 C-6.99 4 -7.98 4 -9 4 C-9 7.63 -9 11.26 -9 15 C-10.32 15 -11.64 15 -13 15 C-13 10.38 -13 5.76 -13 1 C-9.90755208 1.03255208 -6.81510417 1.06510417 -3.72265625 1.09765625 C-1.08552366 1.31262571 -1.08552366 1.31262571 0 0 Z " fill="#113574" transform="translate(189,192)"/>
<path d="M0 0 C2.81256281 -0.02684312 5.62487241 -0.04676188 8.4375 -0.0625 C9.23994141 -0.07087891 10.04238281 -0.07925781 10.86914062 -0.08789062 C12.91295221 -0.0965143 14.95683902 -0.0522815 17 0 C18 1 18 1 18.09765625 3.94140625 C18.08605469 5.13636719 18.07445313 6.33132812 18.0625 7.5625 C18.05347656 8.76003906 18.04445313 9.95757812 18.03515625 11.19140625 C18.02355469 12.11824219 18.01195313 13.04507813 18 14 C16.68 14 15.36 14 14 14 C14 10.37 14 6.74 14 3 C13.01 3 12.02 3 11 3 C11 6.63 11 10.26 11 14 C9.68 14 8.36 14 7 14 C7 10.37 7 6.74 7 3 C6.01 3 5.02 3 4 3 C4 6.63 4 10.26 4 14 C2.68 14 1.36 14 0 14 C0 9.38 0 4.76 0 0 Z " fill="#20457B" transform="translate(78,193)"/>
<path d="M0 0 C9.82608696 0 9.82608696 0 12 2 C13 5.375 13 5.375 13 9 C11.375 11.4375 11.375 11.4375 9 13 C6.25 13.25 6.25 13.25 4 13 C4 15.31 4 17.62 4 20 C2.68 20 1.36 20 0 20 C0 13.4 0 6.8 0 0 Z " fill="#0B3C74" transform="translate(125,187)"/>
<path d="M0 0 C1.32 0 2.64 0 4 0 C4.33 1.98 4.66 3.96 5 6 C5.804375 5.979375 6.60875 5.95875 7.4375 5.9375 C10 6 10 6 11 7 C11.07258946 9.18639453 11.08373783 11.37500389 11.0625 13.5625 C11.05347656 14.76003906 11.04445312 15.95757812 11.03515625 17.19140625 C11.02355469 18.11824219 11.01195312 19.04507813 11 20 C9.68 20 8.36 20 7 20 C7 16.37 7 12.74 7 9 C6.01 9 5.02 9 4 9 C4 12.63 4 16.26 4 20 C2.68 20 1.36 20 0 20 C0 13.4 0 6.8 0 0 Z " fill="#103072" transform="translate(140,187)"/>
<path d="M0 0 C1.38226016 2.76452033 1.09525387 5.0461363 1.0625 8.125 C1.05347656 9.22070312 1.04445312 10.31640625 1.03515625 11.4453125 C1.02355469 12.28835937 1.01195312 13.13140625 1 14 C-2.3 14 -5.6 14 -9 14 C-9.625 11.125 -9.625 11.125 -10 8 C-8 6 -8 6 -5.9375 5.5 C-5.298125 5.335 -4.65875 5.17 -4 5 C-3.67 4.34 -3.34 3.68 -3 3 C-4.98 3.33 -6.96 3.66 -9 4 C-8.625 2.0625 -8.625 2.0625 -8 0 C-5.09660535 -1.45169732 -3.09125158 -0.72348441 0 0 Z " fill="#123573" transform="translate(206,193)"/>
<path d="M0 0 C1 1 1 1 1.09765625 3.94140625 C1.08605469 5.13636719 1.07445313 6.33132812 1.0625 7.5625 C1.05347656 8.76003906 1.04445313 9.95757812 1.03515625 11.19140625 C1.02355469 12.11824219 1.01195313 13.04507813 1 14 C-0.45792884 14.05399736 -1.91642712 14.09279177 -3.375 14.125 C-4.18710938 14.14820313 -4.99921875 14.17140625 -5.8359375 14.1953125 C-8 14 -8 14 -10 12 C-9.9375 9.5 -9.9375 9.5 -9 7 C-6.5 5.8125 -6.5 5.8125 -4 5 C-3.67 4.34 -3.34 3.68 -3 3 C-4.98 3.33 -6.96 3.66 -9 4 C-8.625 2.0625 -8.625 2.0625 -8 0 C-5.11795733 -1.44102133 -3.08226581 -0.65580124 0 0 Z " fill="#1F3E7B" transform="translate(108,193)"/>
<path d="M0 0 C3.375 -0.125 3.375 -0.125 7 0 C9 2 9 2 9.1953125 4.8203125 C9.16050781 6.45613281 9.16050781 6.45613281 9.125 8.125 C9.10695312 9.22070312 9.08890625 10.31640625 9.0703125 11.4453125 C9.04710937 12.28835937 9.02390625 13.13140625 9 14 C5.7 14 2.4 14 -1 14 C-1.625 11.125 -1.625 11.125 -2 8 C0 6 0 6 2.0625 5.5 C2.701875 5.335 3.34125 5.17 4 5 C4.33 4.34 4.66 3.68 5 3 C3.02 3.33 1.04 3.66 -1 4 C-0.67 2.68 -0.34 1.36 0 0 Z " fill="#184279" transform="translate(155,193)"/>
<path d="M0 0 C0.598125 0.20625 1.19625 0.4125 1.8125 0.625 C2.1425 2.275 2.4725 3.925 2.8125 5.625 C4.1325 5.955 5.4525 6.285 6.8125 6.625 C6.25549928 9.85560419 5.52034878 11.6908223 2.8125 13.625 C0.375 14.125 0.375 14.125 -2.1875 13.625 C-4.5625 11.5625 -4.5625 11.5625 -6.1875 8.625 C-6.125 4.9375 -6.125 4.9375 -5.1875 1.625 C-2.1875 -0.375 -2.1875 -0.375 0 0 Z " fill="#205284" transform="translate(137.1875,136.375)"/>
<path d="M0 0 C1.32 0 2.64 0 4 0 C4.66 1.98 5.32 3.96 6 6 C6.33 4.02 6.66 2.04 7 0 C8.32 0 9.64 0 11 0 C9.41463415 14.58536585 9.41463415 14.58536585 5 19 C3.68 19 2.36 19 1 19 C1 18.01 1 17.02 1 16 C1.66 15.67 2.32 15.34 3 15 C2.86722656 14.41992188 2.73445312 13.83984375 2.59765625 13.2421875 C1.60295999 8.84229018 0.68631668 4.46105842 0 0 Z " fill="#1B3E76" transform="translate(209,193)"/>
<path d="M0 0 C1.32 0 2.64 0 4 0 C4 6.6 4 13.2 4 20 C2.68 20 1.36 20 0 20 C0 13.4 0 6.8 0 0 Z " fill="#123172" transform="translate(112,187)"/>
<path d="M0 0 C1.85625 -0.061875 1.85625 -0.061875 3.75 -0.125 C4.79414063 -0.15980469 4.79414063 -0.15980469 5.859375 -0.1953125 C8.30155975 0.02751458 9.88636771 0.79085 12 2 C11.24266726 3.3410477 10.46867264 4.67269781 9.6875 6 C9.25824219 6.7425 8.82898438 7.485 8.38671875 8.25 C7.92910156 8.8275 7.47148437 9.405 7 10 C6.01 10 5.02 10 4 10 C1.61685817 6.79192446 0.56231391 3.93619738 0 0 Z " fill="#244C7F" transform="translate(125,187)"/>
<path d="M0 0 C1.32 0.33 2.64 0.66 4 1 C4.99 0.67 5.98 0.34 7 0 C7 0.99 7 1.98 7 3 C6.01 3.495 6.01 3.495 5 4 C4.53248212 6.35599235 4.53248212 6.35599235 4.375 9.0625 C4.30023438 9.98160156 4.22546875 10.90070313 4.1484375 11.84765625 C4.09945312 12.55792969 4.05046875 13.26820313 4 14 C2.68 14 1.36 14 0 14 C0 9.38 0 4.76 0 0 Z " fill="#153875" transform="translate(167,193)"/>
<path d="M0 0 C0 0.66 0 1.32 0 2 C-8.2425317 2.26305952 -15.91191011 1.60614551 -24 0 C-24 -0.33 -24 -0.66 -24 -1 C-15.78417571 -2.85041088 -8.02592644 -2.42292119 0 0 Z " fill="#8AA143" transform="translate(186,105)"/>
<path d="M0 0 C1.9375 0.8125 1.9375 0.8125 3.9375 2.8125 C3.57068342 5.74703261 3.07312754 6.67687246 0.9375 8.8125 C-1.6875 8.4375 -1.6875 8.4375 -4.0625 7.8125 C-4.75 5.5 -4.75 5.5 -5.0625 2.8125 C-3.54188901 0.41153528 -2.87462184 -0.26132926 0 0 Z " fill="#F1F3F1" transform="translate(143.0625,134.1875)"/>
<path d="M0 0 C0.99 0 1.98 0 3 0 C3 0.66 3 1.32 3 2 C4.98 1.67 6.96 1.34 9 1 C8.67 1.99 8.34 2.98 8 4 C5.4375 5.1875 5.4375 5.1875 3 6 C3 7.65 3 9.3 3 11 C2.01 11.33 1.02 11.66 0 12 C0 8.04 0 4.08 0 0 Z " fill="#EBEDF1" transform="translate(194,195)"/>
<path d="M0 0 C0.66 0.33 1.32 0.66 2 1 C0.35 2.65 -1.3 4.3 -3 6 C-2.67 6.66 -2.34 7.32 -2 8 C-6.95 10.97 -6.95 10.97 -12 14 C-10.33603313 10.67206626 -8.96959596 8.59786553 -6.5625 5.875 C-5.96566406 5.19179687 -5.36882812 4.50859375 -4.75390625 3.8046875 C-3 2 -3 2 0 0 Z " fill="#167CB7" transform="translate(120,127)"/>
<path d="M0 0 C0.99 0 1.98 0 3 0 C3 4.62 3 9.24 3 14 C2.01 14 1.02 14 0 14 C0 9.38 0 4.76 0 0 Z " fill="#093573" transform="translate(72,193)"/>
<path d="M0 0 C3 1 3 1 3.984375 2.70703125 C4.23703125 3.40183594 4.4896875 4.09664062 4.75 4.8125 C5.01296875 5.49957031 5.2759375 6.18664062 5.546875 6.89453125 C6.06056958 9.28143969 5.76282269 10.70637773 5 13 C5 12.01 5 11.02 5 10 C4.34 10 3.68 10 3 10 C2.67 10.99 2.34 11.98 2 13 C1.87625 12.071875 1.87625 12.071875 1.75 11.125 C1.18741541 8.81562433 1.18741541 8.81562433 -1.0625 7.75 C-1.701875 7.5025 -2.34125 7.255 -3 7 C-1.68 6.01 -0.36 5.02 1 4 C0.67 2.68 0.34 1.36 0 0 Z " fill="#113875" transform="translate(63,190)"/>
<path d="M0 0 C0.66 0.33 1.32 0.66 2 1 C0.02 1.99 0.02 1.99 -2 3 C-2 3.99 -2 4.98 -2 6 C-0.68 5.67 0.64 5.34 2 5 C1.34 6.32 0.68 7.64 0 9 C-1.65 8.67 -3.3 8.34 -5 8 C-5.6875 6.1875 -5.6875 6.1875 -6 4 C-4.15840327 1.51384442 -2.99529289 0.99843096 0 0 Z " fill="#123874" transform="translate(104,198)"/>
<path d="M0 0 C0.99 0.66 1.98 1.32 3 2 C2.67 3.65 2.34 5.3 2 7 C1.01 6.01 0.02 5.02 -1 4 C-1.33 4.99 -1.66 5.98 -2 7 C-3.32 7 -4.64 7 -6 7 C-6 5.35 -6 3.7 -6 2 C-3.1875 0.875 -3.1875 0.875 0 0 Z " fill="#2C4F80" transform="translate(66,188)"/>
<path d="M0 0 C0.66 0.33 1.32 0.66 2 1 C1.75 4.375 1.75 4.375 1 8 C-1.0625 9.4375 -1.0625 9.4375 -3 10 C-3.99 9.34 -4.98 8.68 -6 8 C-5.34 8 -4.68 8 -4 8 C-3.71125 7.05125 -3.4225 6.1025 -3.125 5.125 C-2 2 -2 2 0 0 Z " fill="#17427A" transform="translate(136,190)"/>
<path d="M0 0 C0.928125 0.165 1.85625 0.33 2.8125 0.5 C5.95621353 1.07748388 5.95621353 1.07748388 9 1 C8.67 1.99 8.34 2.98 8 4 C6.35 4.33 4.7 4.66 3 5 C2.01 8.465 2.01 8.465 1 12 C0.67 12 0.34 12 0 12 C0 8.04 0 4.08 0 0 Z " fill="#DEE2E7" transform="translate(96,195)"/>
<path d="M0 0 C0 2.97 0 5.94 0 9 C-0.99 9.33 -1.98 9.66 -3 10 C-3 9.01 -3 8.02 -3 7 C-3.99 7 -4.98 7 -6 7 C-6 4 -6 4 -4.125 1.8125 C-2 0 -2 0 0 0 Z " fill="#5E7A9F" transform="translate(108,197)"/>
<path d="M0 0 C0.33 0 0.66 0 1 0 C1 1.65 1 3.3 1 5 C0.34 5 -0.32 5 -1 5 C-1 5.66 -1 6.32 -1 7 C-2.65 7 -4.3 7 -6 7 C-6.33 5.35 -6.66 3.7 -7 2 C-5.68 1.67 -4.36 1.34 -3 1 C-3 1.99 -3 2.98 -3 4 C-2.01 4 -1.02 4 0 4 C0 2.68 0 1.36 0 0 Z " fill="#123575" transform="translate(160,200)"/>
<path d="M0 0 C0.99 0 1.98 0 3 0 C3 3.63 3 7.26 3 11 C2.01 11 1.02 11 0 11 C0 7.37 0 3.74 0 0 Z " fill="#EFF5F7" transform="translate(187,196)"/>
<path d="M0 0 C2.31 0 4.62 0 7 0 C7.33 0.99 7.66 1.98 8 3 C7.34 3 6.68 3 6 3 C5.67 3.66 5.34 4.32 5 5 C5 4.34 5 3.68 5 3 C3.02 3.33 1.04 3.66 -1 4 C-0.67 2.68 -0.34 1.36 0 0 Z " fill="#14397A" transform="translate(155,193)"/>
<path d="M0 0 C2.475 0.495 2.475 0.495 5 1 C4.67 2.65 4.34 4.3 4 6 C2.68 6 1.36 6 0 6 C0 4.02 0 2.04 0 0 Z " fill="#D4D9E1" transform="translate(60,198)"/>
<path d="M0 0 C0.69738281 0.00451172 1.39476562 0.00902344 2.11328125 0.01367188 C3.82555803 0.0253998 5.53779033 0.04333347 7.25 0.0625 C3.75888487 2.0529799 1.24258866 2.12022228 -2.77734375 2 C-5.39637514 2.08297921 -7.42404414 2.89952207 -9.75 4.0625 C-9.75 3.4025 -9.75 2.7425 -9.75 2.0625 C-10.41 1.7325 -11.07 1.4025 -11.75 1.0625 C-7.88276369 -0.20332219 -4.01848738 -0.0493765 0 0 Z " fill="#E1EAEE" transform="translate(138.75,128.9375)"/>
<path d="M0 0 C0.99 0 1.98 0 3 0 C3 3.63 3 7.26 3 11 C2.01 10.34 1.02 9.68 0 9 C-0.29296875 6.8359375 -0.29296875 6.8359375 -0.1875 4.375 C-0.16042969 3.55773437 -0.13335937 2.74046875 -0.10546875 1.8984375 C-0.05326172 0.95871094 -0.05326172 0.95871094 0 0 Z " fill="#F2F6F8" transform="translate(144,196)"/>
<path d="M0 0 C-0.99 0.33 -1.98 0.66 -3 1 C-3 1.66 -3 2.32 -3 3 C-4.98 3.33 -6.96 3.66 -9 4 C-8.625 2.0625 -8.625 2.0625 -8 0 C-5.13822943 -1.43088528 -3.06624227 -0.59991697 0 0 Z " fill="#2B5088" transform="translate(206,193)"/>
<path d="M0 0 C2.475 0.495 2.475 0.495 5 1 C4.67 2.32 4.34 3.64 4 5 C2.68 5.33 1.36 5.66 0 6 C0 4.02 0 2.04 0 0 Z " fill="#D7DBE2" transform="translate(129,191)"/>
<path d="M0 0 C-0.33 1.98 -0.66 3.96 -1 6 C-1.99 6 -2.98 6 -4 6 C-4 5.01 -4 4.02 -4 3 C-5.32 3.33 -6.64 3.66 -8 4 C-6 1 -6 1 -4 0.3125 C-2 0 -2 0 0 0 Z " fill="#6883AB" transform="translate(161,198)"/>
<path d="M0 0 C2 3.75 2 3.75 2 6 C0.35 6.66 -1.3 7.32 -3 8 C-3.33 7.34 -3.66 6.68 -4 6 C-3.0625 3.875 -3.0625 3.875 -2 2 C-1.34 2 -0.68 2 0 2 C0 1.34 0 0.68 0 0 Z " fill="#88A249" transform="translate(130,141)"/>
<path d="M0 0 C0.33 0.66 0.66 1.32 1 2 C2.98 1.67 4.96 1.34 7 1 C6.67 1.99 6.34 2.98 6 4 C2.9375 5.1875 2.9375 5.1875 0 6 C-1.125 2.25 -1.125 2.25 0 0 Z " fill="#E8EAEF" transform="translate(153,195)"/>
<path d="M0 0 C4.2742558 1.5830577 6.26531794 4.50568404 9 8 C8.67 8.66 8.34 9.32 8 10 C1.42857143 5 1.42857143 5 0 0 Z " fill="#187CBA" transform="translate(158,131)"/>
<path d="M0 0 C0.99 0.33 1.98 0.66 3 1 C2.67 2.32 2.34 3.64 2 5 C0.35 5.33 -1.3 5.66 -3 6 C-3 3 -3 3 -1.5 1.3125 C-0.7575 0.6628125 -0.7575 0.6628125 0 0 Z " fill="#0D3478" transform="translate(213,206)"/>
<path d="M0 0 C0.33 1.32 0.66 2.64 1 4 C-1.475 5.485 -1.475 5.485 -4 7 C-4.33 5.68 -4.66 4.36 -5 3 C-3.35 2.01 -1.7 1.02 0 0 Z " fill="#778DAB" transform="translate(202,200)"/>
<path d="M0 0 C2.475 0.495 2.475 0.495 5 1 C4.01 1.33 3.02 1.66 2 2 C1.67 5.3 1.34 8.6 1 12 C0.67 12 0.34 12 0 12 C0 8.04 0 4.08 0 0 Z " fill="#113E74" transform="translate(80,194)"/>
<path d="M0 0 C3.36591866 1.44253657 5.51047079 3.33264727 8 6 C7.67 6.99 7.34 7.98 7 9 C4.03595495 6.19195732 1.55500981 3.81684226 0 0 Z " fill="#388FC6" transform="translate(107,144)"/>
<path d="M0 0 C2.97 0 5.94 0 9 0 C9.33 0.66 9.66 1.32 10 2 C5.94568308 3.15837626 3.78187881 2.83691257 0 1 C0 0.67 0 0.34 0 0 Z " fill="#375C87" transform="translate(56,187)"/>
<path d="M0 0 C5.75 -0.125 5.75 -0.125 8 1 C8 1.66 8 2.32 8 3 C5.69 3 3.38 3 1 3 C0.67 2.01 0.34 1.02 0 0 Z " fill="#89A03B" transform="translate(178,104)"/>
<path d="M0 0 C0.99 0 1.98 0 3 0 C3.33 1.32 3.66 2.64 4 4 C1.36 3.67 -1.28 3.34 -4 3 C-2.68 2.67 -1.36 2.34 0 2 C0 1.34 0 0.68 0 0 Z " fill="#95A859" transform="translate(175,103)"/>
<path d="M0 0 C2.475 0.495 2.475 0.495 5 1 C4.67 1.99 4.34 2.98 4 4 C2.68 4 1.36 4 0 4 C0 2.68 0 1.36 0 0 Z " fill="#E3E6EB" transform="translate(60,191)"/>
<path d="M0 0 C1.65 0 3.3 0 5 0 C5.33 0.66 5.66 1.32 6 2 C3.69 2.33 1.38 2.66 -1 3 C-0.67 2.01 -0.34 1.02 0 0 Z " fill="#12407F" transform="translate(145,193)"/>
<path d="M0 0 C2.1875 0.3125 2.1875 0.3125 4 1 C3.34 2.32 2.68 3.64 2 5 C2 4.34 2 3.68 2 3 C0.35 3 -1.3 3 -3 3 C-1.75 1.4375 -1.75 1.4375 0 0 Z " fill="#154576" transform="translate(135,136)"/>
</svg>
